<?xml version="1.0" encoding="UTF-8"?>
<svg xmlns="http://www.w3.org/2000/svg"
     xmlns:xlink="http://www.w3.org/1999/xlink"
     xmlns:gadfly="http://www.gadflyjl.org/ns"
     version="1.2"
     width="152.4mm" height="101.6mm" viewBox="0 0 152.4 101.6"
     stroke="none"
     fill="#000000"
     stroke-width="0.3"
     font-size="3.88"
>
<defs>
  <marker id="arrow" markerWidth="15" markerHeight="7" refX="5" refY="3.5" orient="auto" markerUnits="strokeWidth">
    <path d="M0,0 L15,3.5 L0,7 z" stroke="context-stroke" fill="context-stroke"/>
  </marker>
</defs>
<g class="plotroot xscalable yscalable" id="img-190e89b6-1">
  <g font-size="3.88" font-family="'PT Sans','Helvetica Neue','Helvetica',sans-serif" fill="#564A55" stroke="#000000" stroke-opacity="0.000" id="img-190e89b6-2">
    <g transform="translate(78.77,90.06)">
      <g class="primitive">
        <text text-anchor="middle" dy="0.6em">Sepal Width Coefficients</text>
      </g>
    </g>
  </g>
  <g class="guide xlabels" font-size="2.82" font-family="'PT Sans Caption','Helvetica Neue','Helvetica',sans-serif" fill="#6C606B" id="img-190e89b6-3">
    <g transform="translate(12.14,84.01)">
      <g class="primitive">
        <text text-anchor="middle" dy="0.6em">-2</text>
      </g>
    </g>
    <g transform="translate(56.56,84.01)">
      <g class="primitive">
        <text text-anchor="middle" dy="0.6em">-1</text>
      </g>
    </g>
    <g transform="translate(100.98,84.01)">
      <g class="primitive">
        <text text-anchor="middle" dy="0.6em">0</text>
      </g>
    </g>
    <g transform="translate(145.4,84.01)">
      <g class="primitive">
        <text text-anchor="middle" dy="0.6em">1</text>
      </g>
    </g>
  </g>
  <g clip-path="url(#img-190e89b6-4)">
    <g id="img-190e89b6-5">
      <g pointer-events="visible" stroke-width="0.3" fill="#000000" fill-opacity="0.000" stroke="#000000" stroke-opacity="0.000" class="guide background" id="img-190e89b6-6">
        <g transform="translate(78.77,44.01)" id="img-190e89b6-7">
          <path d="M-68.63,-39.01 L68.63,-39.01 68.63,39.01 -68.63,39.01  z" class="primitive"/>
        </g>
      </g>
      <g class="guide ygridlines xfixed" stroke-dasharray="0.5,0.5" stroke-width="0.2" stroke="#D0D0E0" id="img-190e89b6-8">
        <g transform="translate(78.77,81.01)" id="img-190e89b6-9">
          <path fill="none" d="M-68.63,0 L68.63,0 " class="primitive"/>
        </g>
        <g transform="translate(78.77,66.21)" id="img-190e89b6-10">
          <path fill="none" d="M-68.63,0 L68.63,0 " class="primitive"/>
        </g>
        <g transform="translate(78.77,51.41)" id="img-190e89b6-11">
          <path fill="none" d="M-68.63,0 L68.63,0 " class="primitive"/>
        </g>
        <g transform="translate(78.77,36.6)" id="img-190e89b6-12">
          <path fill="none" d="M-68.63,0 L68.63,0 " class="primitive"/>
        </g>
        <g transform="translate(78.77,21.8)" id="img-190e89b6-13">
          <path fill="none" d="M-68.63,0 L68.63,0 " class="primitive"/>
        </g>
        <g transform="translate(78.77,7)" id="img-190e89b6-14">
          <path fill="none" d="M-68.63,0 L68.63,0 " class="primitive"/>
        </g>
      </g>
      <g class="guide xgridlines yfixed" stroke-dasharray="0.5,0.5" stroke-width="0.2" stroke="#D0D0E0" id="img-190e89b6-15">
        <g transform="translate(12.14,44.01)" id="img-190e89b6-16">
          <path fill="none" d="M0,-39.01 L0,39.01 " class="primitive"/>
        </g>
        <g transform="translate(56.56,44.01)" id="img-190e89b6-17">
          <path fill="none" d="M0,-39.01 L0,39.01 " class="primitive"/>
        </g>
        <g transform="translate(100.98,44.01)" id="img-190e89b6-18">
          <path fill="none" d="M0,-39.01 L0,39.01 " class="primitive"/>
        </g>
        <g transform="translate(145.4,44.01)" id="img-190e89b6-19">
          <path fill="none" d="M0,-39.01 L0,39.01 " class="primitive"/>
        </g>
      </g>
      <g class="plotpanel" id="img-190e89b6-20">
        <metadata>
          <boundingbox value="10.135381401909711mm 5.0mm 137.26461859809027mm 78.01205512152777mm"/>
          <unitbox value="-2.045023203181148 25.675565621274806 3.090046406362296 -26.35113124254961"/>
        </metadata>
        <g shape-rendering="crispEdges" stroke-width="0.3" id="img-190e89b6-21">
          <g class="geometry" stroke="#000000" stroke-opacity="0.000" fill="#007FB1" id="img-190e89b6-22">
            <g transform="translate(18.03,72.13)" id="img-190e89b6-23" fill-opacity="0.65">
              <path d="M-1.23,-8.88 L1.23,-8.88 1.23,8.88 -1.23,8.88  z" class="primitive"/>
            </g>
            <g transform="translate(20.44,49.93)" id="img-190e89b6-24" fill-opacity="0.85">
              <path d="M-1.23,-31.09 L1.23,-31.09 1.23,31.09 -1.23,31.09  z" class="primitive"/>
            </g>
            <g transform="translate(22.86,49.93)" id="img-190e89b6-25" fill-opacity="0.65">
              <path d="M-1.23,-31.09 L1.23,-31.09 1.23,31.09 -1.23,31.09  z" class="primitive"/>
            </g>
            <g transform="translate(25.27,67.69)" id="img-190e89b6-26" fill-opacity="0.85">
              <path d="M-1.23,-13.32 L1.23,-13.32 1.23,13.32 -1.23,13.32  z" class="primitive"/>
            </g>
            <g transform="translate(27.69,67.69)" id="img-190e89b6-27" fill-opacity="0.65">
              <path d="M-1.23,-13.32 L1.23,-13.32 1.23,13.32 -1.23,13.32  z" class="primitive"/>
            </g>
            <g transform="translate(30.1,75.09)" id="img-190e89b6-28" fill-opacity="0.85">
              <path d="M-1.23,-5.92 L1.23,-5.92 1.23,5.92 -1.23,5.92  z" class="primitive"/>
            </g>
            <g transform="translate(32.52,78.05)" id="img-190e89b6-29" fill-opacity="0.65">
              <path d="M-1.23,-2.96 L1.23,-2.96 1.23,2.96 -1.23,2.96  z" class="primitive"/>
            </g>
            <g transform="translate(34.93,76.57)" id="img-190e89b6-30" fill-opacity="0.85">
              <path d="M-1.23,-4.44 L1.23,-4.44 1.23,4.44 -1.23,4.44  z" class="primitive"/>
            </g>
            <g transform="translate(37.35,76.57)" id="img-190e89b6-31" fill-opacity="0.65">
              <path d="M-1.23,-4.44 L1.23,-4.44 1.23,4.44 -1.23,4.44  z" class="primitive"/>
            </g>
            <g transform="translate(39.76,75.09)" id="img-190e89b6-32" fill-opacity="0.85">
              <path d="M-1.23,-5.92 L1.23,-5.92 1.23,5.92 -1.23,5.92  z" class="primitive"/>
            </g>
            <g transform="translate(42.18,70.65)" id="img-190e89b6-33" fill-opacity="0.65">
              <path d="M-1.23,-10.36 L1.23,-10.36 1.23,10.36 -1.23,10.36  z" class="primitive"/>
            </g>
            <g transform="translate(44.59,75.09)" id="img-190e89b6-34" fill-opacity="0.85">
              <path d="M-1.23,-5.92 L1.23,-5.92 1.23,5.92 -1.23,5.92  z" class="primitive"/>
            </g>
            <g transform="translate(47.01,75.09)" id="img-190e89b6-35" fill-opacity="0.65">
              <path d="M-1.23,-5.92 L1.23,-5.92 1.23,5.92 -1.23,5.92  z" class="primitive"/>
            </g>
            <g transform="translate(49.42,76.57)" id="img-190e89b6-36" fill-opacity="0.85">
              <path d="M-1.23,-4.44 L1.23,-4.44 1.23,4.44 -1.23,4.44  z" class="primitive"/>
            </g>
            <g transform="translate(51.84,76.57)" id="img-190e89b6-37" fill-opacity="0.65">
              <path d="M-1.23,-4.44 L1.23,-4.44 1.23,4.44 -1.23,4.44  z" class="primitive"/>
            </g>
            <g transform="translate(54.25,79.53)" id="img-190e89b6-38" fill-opacity="0.85">
              <path d="M-1.23,-1.48 L1.23,-1.48 1.23,1.48 -1.23,1.48  z" class="primitive"/>
            </g>
            <g transform="translate(56.66,78.05)" id="img-190e89b6-39" fill-opacity="0.65">
              <path d="M-1.23,-2.96 L1.23,-2.96 1.23,2.96 -1.23,2.96  z" class="primitive"/>
            </g>
            <g transform="translate(59.08,81.02)" id="img-190e89b6-40" fill-opacity="0.85">
              <path d="M-1.23,-0 L1.23,-0 1.23,0 -1.23,0  z" class="primitive"/>
            </g>
            <g transform="translate(61.49,76.57)" id="img-190e89b6-41" fill-opacity="0.65">
              <path d="M-1.23,-4.44 L1.23,-4.44 1.23,4.44 -1.23,4.44  z" class="primitive"/>
            </g>
            <g transform="translate(63.91,78.05)" id="img-190e89b6-42" fill-opacity="0.85">
              <path d="M-1.23,-2.96 L1.23,-2.96 1.23,2.96 -1.23,2.96  z" class="primitive"/>
            </g>
            <g transform="translate(66.32,79.53)" id="img-190e89b6-43" fill-opacity="0.65">
              <path d="M-1.23,-1.48 L1.23,-1.48 1.23,1.48 -1.23,1.48  z" class="primitive"/>
            </g>
            <g transform="translate(68.74,75.09)" id="img-190e89b6-44" fill-opacity="0.85">
              <path d="M-1.23,-5.92 L1.23,-5.92 1.23,5.92 -1.23,5.92  z" class="primitive"/>
            </g>
            <g transform="translate(71.15,76.57)" id="img-190e89b6-45" fill-opacity="0.65">
              <path d="M-1.23,-4.44 L1.23,-4.44 1.23,4.44 -1.23,4.44  z" class="primitive"/>
            </g>
            <g transform="translate(73.57,79.53)" id="img-190e89b6-46" fill-opacity="0.85">
              <path d="M-1.23,-1.48 L1.23,-1.48 1.23,1.48 -1.23,1.48  z" class="primitive"/>
            </g>
            <g transform="translate(75.98,79.53)" id="img-190e89b6-47" fill-opacity="0.65">
              <path d="M-1.23,-1.48 L1.23,-1.48 1.23,1.48 -1.23,1.48  z" class="primitive"/>
            </g>
            <g transform="translate(78.4,78.05)" id="img-190e89b6-48" fill-opacity="0.85">
              <path d="M-1.23,-2.96 L1.23,-2.96 1.23,2.96 -1.23,2.96  z" class="primitive"/>
            </g>
            <g transform="translate(80.81,79.53)" id="img-190e89b6-49" fill-opacity="0.65">
              <path d="M-1.23,-1.48 L1.23,-1.48 1.23,1.48 -1.23,1.48  z" class="primitive"/>
            </g>
            <g transform="translate(83.23,81.02)" id="img-190e89b6-50" fill-opacity="0.85">
              <path d="M-1.23,-0 L1.23,-0 1.23,0 -1.23,0  z" class="primitive"/>
            </g>
            <g transform="translate(85.64,79.53)" id="img-190e89b6-51" fill-opacity="0.65">
              <path d="M-1.23,-1.48 L1.23,-1.48 1.23,1.48 -1.23,1.48  z" class="primitive"/>
            </g>
            <g transform="translate(88.06,76.57)" id="img-190e89b6-52" fill-opacity="0.85">
              <path d="M-1.23,-4.44 L1.23,-4.44 1.23,4.44 -1.23,4.44  z" class="primitive"/>
            </g>
            <g transform="translate(90.47,81.02)" id="img-190e89b6-53" fill-opacity="0.65">
              <path d="M-1.23,-0 L1.23,-0 1.23,0 -1.23,0  z" class="primitive"/>
            </g>
            <g transform="translate(92.89,81.02)" id="img-190e89b6-54" fill-opacity="0.85">
              <path d="M-1.23,-0 L1.23,-0 1.23,0 -1.23,0  z" class="primitive"/>
            </g>
            <g transform="translate(95.3,76.57)" id="img-190e89b6-55" fill-opacity="0.65">
              <path d="M-1.23,-4.44 L1.23,-4.44 1.23,4.44 -1.23,4.44  z" class="primitive"/>
            </g>
            <g transform="translate(97.72,76.57)" id="img-190e89b6-56" fill-opacity="0.85">
              <path d="M-1.23,-4.44 L1.23,-4.44 1.23,4.44 -1.23,4.44  z" class="primitive"/>
            </g>
            <g transform="translate(100.13,78.05)" id="img-190e89b6-57" fill-opacity="0.65">
              <path d="M-1.23,-2.96 L1.23,-2.96 1.23,2.96 -1.23,2.96  z" class="primitive"/>
            </g>
            <g transform="translate(102.54,81.02)" id="img-190e89b6-58" fill-opacity="0.85">
              <path d="M-1.23,-0 L1.23,-0 1.23,0 -1.23,0  z" class="primitive"/>
            </g>
            <g transform="translate(104.96,79.53)" id="img-190e89b6-59" fill-opacity="0.65">
              <path d="M-1.23,-1.48 L1.23,-1.48 1.23,1.48 -1.23,1.48  z" class="primitive"/>
            </g>
            <g transform="translate(107.37,78.05)" id="img-190e89b6-60" fill-opacity="0.85">
              <path d="M-1.23,-2.96 L1.23,-2.96 1.23,2.96 -1.23,2.96  z" class="primitive"/>
            </g>
            <g transform="translate(109.79,76.57)" id="img-190e89b6-61" fill-opacity="0.65">
              <path d="M-1.23,-4.44 L1.23,-4.44 1.23,4.44 -1.23,4.44  z" class="primitive"/>
            </g>
            <g transform="translate(112.2,81.02)" id="img-190e89b6-62" fill-opacity="0.85">
              <path d="M-1.23,-0 L1.23,-0 1.23,0 -1.23,0  z" class="primitive"/>
            </g>
            <g transform="translate(114.62,81.02)" id="img-190e89b6-63" fill-opacity="0.65">
              <path d="M-1.23,-0 L1.23,-0 1.23,0 -1.23,0  z" class="primitive"/>
            </g>
            <g transform="translate(117.03,81.02)" id="img-190e89b6-64" fill-opacity="0.85">
              <path d="M-1.23,-0 L1.23,-0 1.23,0 -1.23,0  z" class="primitive"/>
            </g>
            <g transform="translate(119.45,78.05)" id="img-190e89b6-65" fill-opacity="0.65">
              <path d="M-1.23,-2.96 L1.23,-2.96 1.23,2.96 -1.23,2.96  z" class="primitive"/>
            </g>
            <g transform="translate(121.86,79.53)" id="img-190e89b6-66" fill-opacity="0.85">
              <path d="M-1.23,-1.48 L1.23,-1.48 1.23,1.48 -1.23,1.48  z" class="primitive"/>
            </g>
            <g transform="translate(124.28,81.02)" id="img-190e89b6-67" fill-opacity="0.65">
              <path d="M-1.23,-0 L1.23,-0 1.23,0 -1.23,0  z" class="primitive"/>
            </g>
            <g transform="translate(126.69,78.05)" id="img-190e89b6-68" fill-opacity="0.85">
              <path d="M-1.23,-2.96 L1.23,-2.96 1.23,2.96 -1.23,2.96  z" class="primitive"/>
            </g>
            <g transform="translate(129.11,81.02)" id="img-190e89b6-69" fill-opacity="0.65">
              <path d="M-1.23,-0 L1.23,-0 1.23,0 -1.23,0  z" class="primitive"/>
            </g>
            <g transform="translate(131.52,78.05)" id="img-190e89b6-70" fill-opacity="0.85">
              <path d="M-1.23,-2.96 L1.23,-2.96 1.23,2.96 -1.23,2.96  z" class="primitive"/>
            </g>
            <g transform="translate(133.94,81.02)" id="img-190e89b6-71" fill-opacity="0.65">
              <path d="M-1.23,-0 L1.23,-0 1.23,0 -1.23,0  z" class="primitive"/>
            </g>
            <g transform="translate(136.35,79.53)" id="img-190e89b6-72" fill-opacity="0.85">
              <path d="M-1.23,-1.48 L1.23,-1.48 1.23,1.48 -1.23,1.48  z" class="primitive"/>
            </g>
          </g>
        </g>
      </g>
    </g>
  </g>
  <g class="guide ylabels" font-size="2.82" font-family="'PT Sans Caption','Helvetica Neue','Helvetica',sans-serif" fill="#6C606B" id="img-190e89b6-73">
    <g transform="translate(9.14,81.01)" id="img-190e89b6-74">
      <g class="primitive">
        <text text-anchor="end" dy="0.35em">0</text>
      </g>
    </g>
    <g transform="translate(9.14,66.21)" id="img-190e89b6-75">
      <g class="primitive">
        <text text-anchor="end" dy="0.35em">5</text>
      </g>
    </g>
    <g transform="translate(9.14,51.41)" id="img-190e89b6-76">
      <g class="primitive">
        <text text-anchor="end" dy="0.35em">10</text>
      </g>
    </g>
    <g transform="translate(9.14,36.6)" id="img-190e89b6-77">
      <g class="primitive">
        <text text-anchor="end" dy="0.35em">15</text>
      </g>
    </g>
    <g transform="translate(9.14,21.8)" id="img-190e89b6-78">
      <g class="primitive">
        <text text-anchor="end" dy="0.35em">20</text>
      </g>
    </g>
    <g transform="translate(9.14,7)" id="img-190e89b6-79">
      <g class="primitive">
        <text text-anchor="end" dy="0.35em">25</text>
      </g>
    </g>
  </g>
</g>
<defs>
  <clipPath id="img-190e89b6-4">
    <path d="M10.14,5 L147.4,5 147.4,83.01 10.14,83.01 " />
  </clipPath>
</defs>
</svg>
